# xmcd
#
# Track frame offsets:
#	150
#	14455
#	29937
#	47217
#	63287
#	77572
#	101952
#	115852
#	132140
#	147517
#	161680
#	181617
#	200877
#	217320
#	235175
#	255027
#
# Disc length: 3700 seconds
#
# Revision: 1
# Processed by: cddbd v1.5.1PL0 Copyright (c) Steve Scherf et al.
# Submitted via: CDex 1.50Beta5
#
DISCID=ea0e7210
DTITLE=三波春夫 - 全曲集
DYEAR=1997
DGENRE=Pop
TTITLE0=チャンチキおけさ
TTITLE1=船方さんよ
TTITLE2=大利根無情
TTITLE3=雪の渡り鳥
TTITLE4=トッチャカ人生
TTITLE5=仁侠虎造ぶし
TTITLE6=天竜しぶき笠
TTITLE7=文左たから船
TTITLE8=東京五輪音頭
TTITLE9=世界の国からこんにちは
TTITLE10=一本刀土俵入り
TTITLE11=ああ北前船
TTITLE12=都々逸舟歌
TTITLE13=男の峠道
TTITLE14=頑固親爺の浪花節
TTITLE15=おまんた囃子
EXTD=
EXTT0=
EXTT1=
EXTT2=
EXTT3=
EXTT4=
EXTT5=
EXTT6=
EXTT7=
EXTT8=
EXTT9=
EXTT10=
EXTT11=
EXTT12=
EXTT13=
EXTT14=
EXTT15=
PLAYORDER=
